<svg width="56" height="56" viewBox="0 0 56 56" fill="none" xmlns="http://www.w3.org/2000/svg">
<rect width="56" height="56" rx="6" fill="#00875F"/>
<path fill-rule="evenodd" clip-rule="evenodd" d="M17.9 19.5H38.1V21L38.107 19.5C38.7177 19.5029 39.3063 19.728 39.763 20.1333C40.2197 20.5386 40.5132 21.0964 40.5885 21.7023L40.5909 21.7221L42.3655 37.7187C42.3656 37.7194 42.3656 37.7201 42.3657 37.7209C42.4048 38.0687 42.3704 38.4209 42.2648 38.7546C42.1589 39.0889 41.9839 39.3973 41.751 39.6596C41.5182 39.9219 41.2328 40.1323 40.9133 40.2771C40.5938 40.4219 40.2475 40.4978 39.8967 40.5L39.8875 40.5H16.1033C15.7525 40.4978 15.4062 40.4219 15.0867 40.2771C14.7672 40.1323 14.4818 39.9219 14.249 39.6596C14.0161 39.3973 13.8411 39.0889 13.7352 38.7546C13.6296 38.4209 13.5952 38.0687 13.6343 37.7209C13.6344 37.7202 13.6344 37.7195 13.6345 37.7187L15.4091 21.7221L15.4115 21.7023C15.4869 21.0964 15.7803 20.5386 16.237 20.1333C16.6937 19.728 17.2824 19.5029 17.893 19.5L17.9 19.5ZM37.6588 22.5H18.3413L16.6772 37.5H39.3228L37.6588 22.5Z" fill="white"/>
<path fill-rule="evenodd" clip-rule="evenodd" d="M28 17.5C27.0717 17.5 26.1815 17.8687 25.5251 18.5251C24.8687 19.1815 24.5 20.0717 24.5 21V25C24.5 25.8284 23.8284 26.5 23 26.5C22.1716 26.5 21.5 25.8284 21.5 25V21C21.5 19.2761 22.1848 17.6228 23.4038 16.4038C24.6228 15.1848 26.2761 14.5 28 14.5C29.7239 14.5 31.3772 15.1848 32.5962 16.4038C33.8152 17.6228 34.5 19.2761 34.5 21V25C34.5 25.8284 33.8284 26.5 33 26.5C32.1716 26.5 31.5 25.8284 31.5 25V21C31.5 20.0717 31.1313 19.1815 30.4749 18.5251C29.8185 17.8687 28.9283 17.5 28 17.5Z" fill="white"/>
</svg>
